{"accessors":[{"bufferView":0,"componentType":5126,"count":168,"max":[21.4509696960449,3.87132501602173,1.314453125],"min":[-1.5,-8.80148124694824,-13.650764465332],"normalized":false,"type":"VEC3"},{"bufferView":1,"componentType":5123,"count":168,"max":[167.0],"min":[0.0],"normalized":false,"type":"SCALAR"},{"bufferView":2,"componentType":5126,"count":168,"max":[21.4509696960449,3.87132501602173,1.314453125],"min":[-1.5,-8.80148124694824,-13.650764465332],"normalized":false,"type":"VEC3"},{"bufferView":3,"componentType":5126,"count":168,"max":[0.0,0.0000457791611552238,1.0,-1.0],"min":[-1.0,-1.0,-1.0,-1.0],"normalized":false,"type":"VEC4"},{"bufferView":4,"componentType":5126,"count":168,"max":[1.0,1.0,1.0],"min":[-1.0,-1.0,-1.0],"normalized":false,"type":"VEC3"},{"bufferView":5,"componentType":5126,"count":168,"max":[1.0,1.0],"min":[0.0,0.0],"normalized":false,"type":"VEC2"},{"bufferView":6,"componentType":5123,"count":168,"max":[167.0],"min":[0.0],"normalized":false,"type":"SCALAR"}],"asset":{"generator":"Godot Engine v4.5.beta3.mono.official@4d1f26e1fd1fa46f2223fe0b6ac300744bf79b88","version":"2.0"},"bufferViews":[{"buffer":0,"byteLength":2016,"byteStride":12,"target":34962},{"buffer":0,"byteLength":336,"byteOffset":2016,"target":34963},{"buffer":0,"byteLength":2016,"byteOffset":2352,"byteStride":12,"target":34962},{"buffer":0,"byteLength":2688,"byteOffset":4368,"byteStride":16,"target":34962},{"buffer":0,"byteLength":2016,"byteOffset":7056,"byteStride":12,"target":34962},{"buffer":0,"byteLength":1344,"byteOffset":9072,"byteStride":8,"target":34962},{"buffer":0,"byteLength":336,"byteOffset":10416,"target":34963}],"buffers":[{"byteLength":10752,"uri":"tutorial_level0.bin"}],"extensions":{"OMI_physics_shape":{"shapes":[{"trimesh":{"mesh":0},"type":"trimesh"}]}},"extensionsUsed":["GODOT_single_root","OMI_physics_body","OMI_physics_shape"],"materials":[{}],"meshes":[{"primitives":[{"attributes":{"POSITION":0},"indices":1,"mode":4}]},{"primitives":[{"attributes":{"NORMAL":4,"POSITION":2,"TANGENT":3,"TEXCOORD_0":5},"indices":6,"material":0,"mode":4}]}],"nodes":[{"children":[1,2],"extensions":{"OMI_physics_body":{"motion":{"type":"static"}}},"name":"StaticBody3D"},{"extensions":{"OMI_physics_body":{"collider":{"shape":0}}},"name":"CSGBakedCollisionShape3D","scale":[6.0,6.0,6.0],"translation":[0.0,-6.0962233543396,0.0]},{"mesh":1,"name":"CSGBakedMeshInstance3D","scale":[6.0,6.0,6.0],"translation":[0.0,-6.0962233543396,0.0]}],"scene":0,"scenes":[{"nodes":[0]}]}